<?xml version="1.0" encoding="utf-8"?>
<!-- Generator: Adobe Illustrator 19.0.0, SVG Export Plug-In . SVG Version: 6.00 Build 0)  -->
<svg version="1.1" id="layer" xmlns="http://www.w3.org/2000/svg" xmlns:xlink="http://www.w3.org/1999/xlink" x="0px" y="0px"
	 viewBox="-153 -46 652 652" style="enable-background:new -153 -46 652 652;" xml:space="preserve">
<style type="text/css">
	.st0{fill:#E81E33;}
	.st1{fill:#0D528F;}
</style>
<path class="st0" d="M392.7,357.5c-4.8,0-9.6,0-14.4,0c-5.2,0-8.4-3.1-8.4-8.3c-0.1-9.6,0-19.1,0-28.7c0-5.3,3.2-8.4,8.5-8.4
	c7,0,13.9,0,20.9,0c11.2-0.1,19.6-7.3,21.3-18.1c0.5-3.1-0.3-6.1-0.7-9.1c-1.8-13.7,7.1-26.4,20.7-29.5c15.2-3.5,30.2,6.8,32.2,22.2
	c2.4,18.1-13.4,33.2-31.3,29.9c-8.4-1.5-15.4,0.4-21.1,6.8c-3.4,3.9-4.9,8.6-4.9,13.8c0,7.1,0,14.2,0,21.2c0,5.1-3.1,8.2-8.2,8.2
	C402.4,357.5,397.5,357.5,392.7,357.5 M338.4,302.4c-7,0-14,0-21.1,0c-1.3,0-1.7-0.3-1.7-1.7c0.1-14.1,0.1-28.2,0-42.3
	c0-1.5,0.5-1.7,1.9-1.7c8.6,0.1,17.2,0,25.8,0c11.2,0,21-6.6,25.3-17c0.9-2.1,1.3-4.2,1.3-6.5c0-7.1,0-14.3,0-21.4c0-6.1,3-9,9-9
	c9.3,0,18.6,0,27.9,0c5.5,0,8.5,3.1,8.5,8.5c0,9.5,0,19,0,28.5c0,5.3-3.1,8.4-8.4,8.4c-6.6,0-13.1,0.1-19.7,0
	c-11-0.2-18.1,5.7-23.2,14.7c-2.1,3.7-2.7,7.8-2.7,12c0,8.5,0,17.1,0,25.6c0,1.5-0.4,1.9-1.9,1.9
	C352.5,302.3,345.4,302.4,338.4,302.4"/>
<path class="st1" d="M138.5,284.5c0-7.5,0-15.1,0-22.6c0-1.4,0.4-1.9,1.7-2.1c18.9-3.7,38.1-4.5,57.3-3.6c10.1,0.5,20.1,1.6,30,3.5
	c1.5,0.3,2,0.8,1.9,2.3c-0.1,4.3-0.1,8.7,0,13c0,1.4-0.3,1.8-1.8,1.6c-12.8-2.2-25.8-3.2-38.8-3.6c-9.9-0.3-19.7,0.5-29.6,1.7
	c-0.9,0.1-1.3,0.4-1.3,1.4c0,5.5,0,11,0,16.5c0,1.1,0.3,1.5,1.5,1.7c19.5,2.8,39,2,58.5-0.3c3.4-0.4,6.8-0.9,10.2-1.5
	c0.9-0.2,1.2,0,1.2,1c0,4.8,0,9.6,0,14.4c0,1.1-0.7,1.2-1.4,1.4c-5.9,1.2-11.8,2.1-17.8,2.7c-14.3,1.5-28.7,1.8-43,0.8
	c-9-0.6-18-1.6-26.9-3.4c-1.4-0.3-1.9-0.7-1.9-2.2C138.5,299.6,138.5,292,138.5,284.5 M46.2,282.9c0,9.1-0.1,18.1,0,27.1
	c0,1.7-0.4,2.3-2.2,2.2c-5.2-0.1-10.3-0.1-15.5,0c-1.3,0-1.8-0.2-1.8-1.7c0.1-17.4,0.1-34.7,0-52.1c0-2.2,1.1-1.4,2.1-1.2
	c13.8,3.3,26.7,8.8,39.1,15.6c9.5,5.3,18.9,10.9,27.8,17.2c0.4,0.2,0.6,0.6,1.4,0.6v-1.8c0-10,0-20,0-30.1c0-1.6,0.2-2.2,2-2.2
	c5.3,0.1,10.6,0.1,15.9,0c1.2,0,1.5,0.3,1.5,1.5c0,17.5,0,35,0,52.4c0,1.1-0.3,1.5-1.5,1.5c-5.6-0.1-11.1-0.1-16.7,0
	c-1.2,0-1.9-0.6-2.7-1.2c-14.8-11-30.4-20.6-47.5-27.5c-0.5-0.2-0.9-0.4-1.4-0.6C46.6,282.9,46.5,282.9,46.2,282.9 M-28.7,269.6
	c-0.3,0.2-0.7,0.5-1.1,0.8c-12.4,11.1-24.8,22.2-37.2,33.3c-3.3,3-6.7,5.9-10,9c-0.8,0.7-1.2,0.8-2,0
	c-15.8-14.2-31.6-28.4-47.4-42.5c-0.8-0.7-0.9-1.1-0.1-1.9c4.3-3.9,8.6-7.8,12.9-11.7c1-0.9,1.4-0.4,2.1,0.3
	c10.7,10.2,21.4,20.4,32,30.7c1.3,1.2,1.8,1,3-0.1c10.6-10.2,21.3-20.4,31.9-30.6c1-1,1.6-1,2.6,0c4,3.8,8.2,7.5,12.2,11.3
	C-29.4,268.5-28.9,268.8-28.7,269.6 M270.9,284.5c0,8.6,0,17.2,0,25.8c0,1.4-0.3,1.9-1.8,1.9c-5.5-0.1-11.1-0.1-16.6,0
	c-1.4,0-1.7-0.4-1.7-1.7c0-17.3,0-34.7,0-52c0-1.5,0.5-1.8,1.9-1.7c5.5,0.1,11,0.1,16.4,0c1.5,0,1.8,0.4,1.8,1.8
	C270.8,267.2,270.9,275.9,270.9,284.5 M-15.4,284.3c0-8.5,0-17.1,0-25.6c0-1.6,0.5-2,2-2c5.4,0.1,10.8,0.1,16.3,0
	c1.3,0,1.7,0.2,1.7,1.6c0,17.4,0,34.8,0,52.2c0,1.3-0.4,1.6-1.6,1.6c-5.5-0.1-11.1-0.1-16.7,0c-1.5,0-1.8-0.5-1.8-1.9
	C-15.4,301.7-15.4,293-15.4,284.3 M295.2,339.4c0,5.6-0.1,10.9,0,16.1c0,1.6-0.4,2.2-2,2c-0.6-0.1-1.1,0-1.7,0
	c-0.8,0.1-1.1-0.2-1.1-1.1c0-7.5,0-15,0-22.6c0-0.4,0-0.7,0.4-0.9c1.5-0.7,5.1,0.2,6.1,1.6c3.7,5,7.3,10,11,15
	c0.6-0.3,0.3-0.9,0.3-1.3c0-4.5,0-9,0-13.6c0-1.3,0.3-1.8,1.7-1.7c3.2,0.1,3.2,0,3.2,3.2c0,6.6,0,13.1,0,19.7c0,1.5-0.4,1.7-1.8,1.8
	c-2.2,0.2-3.4-0.6-4.7-2.4C303,350,299.1,344.9,295.2,339.4 M102.8,350c0-5.4,0.1-10.3,0-15.2c0-1.6,0.5-2.1,1.9-1.8
	c0.1,0,0.3,0,0.4,0c1.9-0.3,2.6,0.3,2.5,2.4c-0.1,6.8-0.1,13.6,0,20.5c0,1.5-0.5,1.7-1.8,1.8c-2.1,0.2-3.3-0.6-4.5-2.3
	c-3.6-5.2-7.5-10.3-11.5-15.8v5.5c0,3.4,0,6.8,0,10.1c0,0.8,0.5,2-0.4,2.2c-1.3,0.3-2.8,0.1-4.2,0c-0.4,0-0.3-0.6-0.3-1
	c0-7.5,0-14.9,0-22.4c0-0.4-0.1-0.8,0.3-1c1-0.7,5.3,0.2,6.1,1.2C95.1,339.4,98.8,344.5,102.8,350 M160.7,340.4v2.1
	c0,3.1,0.1,3.2,3.2,2.8c3.3-0.4,5-1.8,5.2-4.3c0.4-3.9-1.5-5.8-5.7-5.8c-2.7,0-2.8,0.1-2.8,2.7V340.4L160.7,340.4z M166.7,346.7
	c3.1,3.7,5.9,7.1,9.1,10.8c-2.1,0-3.9,0-5.8,0c-0.9,0-1.2-0.7-1.6-1.2c-2.5-3.1-4.9-6.3-7.7-9.9c0,3.6,0,6.6,0,9.6
	c0,1.1-0.2,1.5-1.4,1.6c-4.2,0-4.2,0.1-4.2-4.1c0-5.9,0.1-11.9,0-17.8c0-1.3,0.4-2,1.6-2.3c4.2-1,8.5-1.3,12.7-0.1
	c2.4,0.7,4.3,2,5.1,4.4c1.3,3.9-0.9,7.4-5.4,8.5C168.4,346.4,167.7,346.5,166.7,346.7 M278.8,345.1c0-2.1-0.1-4.2-0.9-6.2
	c-0.9-2-2.4-3.3-4.7-3.3c-2.3,0-4,1.1-4.7,3.2c-1.5,4.1-1.5,8.4,0,12.5c0.8,2.1,2.5,3.1,4.8,3.1c2.3,0,3.8-1.1,4.7-3.2
	C278.7,349.3,278.8,347.2,278.8,345.1L278.8,345.1z M273,357.9c-7.9,0-12.4-5.8-11.4-14.4c0.9-8.3,6.6-12.4,14.7-10.6
	c4,0.9,6.5,3.4,7.6,7.3c0.9,2.9,0.9,5.9,0.3,8.9C283,354.9,279.2,357.9,273,357.9 M73.4,345.3c0-2.1-0.1-4.2-0.9-6.2
	c-0.8-2.1-2.3-3.4-4.7-3.5c-2.2,0-4,1.1-4.8,3.4c-1.5,4-1.5,8.1-0.1,12.1c0.8,2.4,2.5,3.4,5,3.3c2.3-0.1,3.8-1.2,4.7-3.5
	C73.3,349.1,73.4,347.2,73.4,345.3L73.4,345.3z M56.2,345.2c0-0.6,0-1.1,0-1.7c0.6-9,9.5-13.8,17.4-9.6c2.7,1.4,4.2,3.8,5,6.7
	c0.7,2.6,0.8,5.2,0.3,7.8c-1.2,6.8-5.3,9.9-12.5,9.5c-5.9-0.3-9.8-4.4-10.3-10.8C56.2,346.4,56.2,345.8,56.2,345.2 M180.6,342.5
	c0-2.7,0.1-5.4,0-8c-0.1-1.3,0.4-1.6,1.6-1.6c4.2,0,4.2,0,4.2,4.2c0,4.3,0,8.5,0,12.8c0,3,1.7,4.5,4.7,4.5c2.9,0,4.5-1.6,4.5-4.5
	c0-5,0.1-10.1,0-15.1c0-1.3,0.2-1.9,1.7-1.9c3.6,0.1,3.6,0,3.6,3.7v12.2c0,5.1-2.1,7.8-7.1,8.8c-2.8,0.5-5.7,0.5-8.5-0.7
	c-3-1.3-4.8-3.5-4.7-7C180.6,347.5,180.6,345,180.6,342.5 M119.7,357.9c-1.9,0-3.8-0.2-5.6-0.9c-0.6-0.2-1.6-0.4-0.9-1.4
	c0.6-0.8,0.1-2.7,2-2c1.6,0.6,3.2,0.8,4.9,0.7c2.2-0.1,3.7-1.3,4-2.9c0.4-1.8-0.4-3.1-2.6-4.1c-1.4-0.7-3-1.1-4.4-1.8
	c-2.3-1.2-4-3-3.9-5.8c0.1-2.9,1.7-4.9,4.3-6.1c3.5-1.6,7.1-1.3,10.6-0.1c0.7,0.2,1.3,0.6,0.6,1.4c-0.5,0.6-0.1,2.2-1.7,1.6
	c-1.8-0.6-3.5-1-5.4-0.6c-1.5,0.4-2.5,1.3-2.8,2.8c-0.3,1.6,0.5,2.7,1.9,3.4c1.4,0.7,2.9,1.2,4.4,1.8c4,1.8,5.6,4,5.1,7.6
	c-0.5,3.2-3.6,5.8-7.7,6.3C121.5,357.9,120.6,357.9,119.7,357.9 M47.9,357.9c-8.8,0.1-14-6.9-12.2-15.6c2-9.7,10.6-10.9,16.6-8.9
	c0.6,0.2,1.6,0.3,0.9,1.4c-0.5,0.7-0.2,2.1-1.9,1.7c-5.6-1.5-8.8,0.7-9.8,6.4c-0.3,2-0.2,4,0.2,5.9c1.1,4.5,4.7,6.7,9.1,5.3
	c2-0.7,1.9,0.9,2.3,1.8c0.7,1.4-0.7,1.3-1.3,1.5C50.5,357.8,49,357.9,47.9,357.9 M219.2,357.9c-8.8,0.1-14-6.7-12.4-15.3
	c1.8-9.7,10.2-11.3,16.5-9.2c0.6,0.2,1.7,0.2,1.1,1.5c-0.5,0.9-0.4,2.1-2.2,1.6c-5.1-1.5-8.7,0.9-9.5,6.2c-0.4,2.3-0.3,4.6,0.4,6.8
	c1.3,4.1,4.7,6.1,8.8,4.7c2-0.7,2.1,0.7,2.5,1.8c0.6,1.5-0.9,1.3-1.5,1.5C221.6,357.8,220.1,357.9,219.2,357.9 M138.6,346.7
	c0-3.1,0-6.1,0-9.2c0-1.1-0.2-1.7-1.5-1.5c-0.8,0.1-1.7,0-2.5,0c-1.1,0.1-1.9,0-1.9-1.5c0-1.5,0.7-1.6,1.8-1.6
	c4.6,0.1,9.2,0.1,13.8,0c1.1,0,1.7,0.2,1.7,1.5c0,1.2-0.2,1.6-1.6,1.6c-4.2,0-4.2,0-4.2,4.2c0,5.2,0,10.4,0,15.7
	c0,1.2-0.3,1.6-1.6,1.6c-4.1,0-4.1,0-4.1-4L138.6,346.7 M233.5,346.8c0-3.1,0-6.2,0-9.4c0-1.1-0.3-1.5-1.4-1.4
	c-0.8,0.1-1.7-0.1-2.5,0c-2,0.4-2-0.9-1.9-2.2c0-0.7,0.3-0.9,0.9-0.9c5.1,0,10.2,0,15.3,0c1.4,0,0.9,0.9,0.9,1.6
	c0,0.7,0.3,1.6-1,1.5c-1-0.1-2.1,0.1-3.1,0c-1.3-0.1-1.7,0.3-1.7,1.7c0.1,6,0,12,0.1,18c0,1.5-0.3,2-1.9,1.9c-3.9-0.1-3.9,0-3.9-3.9
	L233.5,346.8 M250,345c0-3.6,0-7.1,0-10.7c0-0.9,0.2-1.3,1.2-1.4c4.5-0.2,4.5-0.2,4.5,4.3c0,6.2,0,12.5,0,18.7
	c0,1.3-0.4,1.6-1.6,1.6c-4.2,0-4.2,0-4.2-4.2V345"/>
</svg>
